<?xml version="1.0" encoding="utf-8"?>
<!-- Generator: Adobe Illustrator 16.0.0, SVG Export Plug-In . SVG Version: 6.00 Build 0)  -->
<!DOCTYPE svg PUBLIC "-//W3C//DTD SVG 1.1//EN" "http://www.w3.org/Graphics/SVG/1.1/DTD/svg11.dtd">
<svg version="1.1" id="Layer_1" xmlns="http://www.w3.org/2000/svg" xmlns:xlink="http://www.w3.org/1999/xlink" x="0px" y="0px"
	 width="512px" height="512px" viewBox="0 0 512 512" enable-background="new 0 0 512 512" xml:space="preserve">
<g>
	<path d="M328.729,195.872c-2.391-1.128-5.23-0.6-7.057,1.304l-1.008,1.064c-25.639,25.636-67.352,25.636-92.99,0
		c-25.634-25.64-25.634-67.352-0.012-92.98l1.076-1.016c1.906-1.828,2.432-4.668,1.306-7.056c-1.128-2.388-3.628-3.832-6.276-3.48
		c-22.01,2.588-41.926,12.24-57.594,27.908c-33.642,33.638-38.196,85.783-11.188,124.647c-0.938,0.986-1.868,1.983-2.723,3.061
		c-4.574-1.852-9.466-2.816-14.404-2.816c-16.308,0-30.546,10.092-36.104,25.053c-15.084,1.823-26.812,14.703-26.812,30.271
		c0,16.812,13.678,30.488,30.49,30.488h156.222c16.812,0,30.49-13.676,30.49-30.488c0-9.943-4.807-18.765-12.195-24.334
		c9.038-4.807,17.562-10.968,24.351-17.758c15.67-15.668,25.32-35.584,27.91-57.596
		C332.518,199.524,331.116,196.996,328.729,195.872z"/>
	<path d="M433.686,139.34c-10.02-39.848-48.453-47.232-67.35-45.54c-2.256,0.2-4.22,1.624-5.11,3.712
		c-0.888,2.084-0.558,4.488,0.862,6.256c3.432,4.276,4.914,8.1,4.402,11.372c-0.66,4.208-4.637,7.628-7.856,9.752
		c-0.905,0.604-1.788,0.464-2.235,0.332c-0.431-0.128-1.213-0.488-1.618-1.44c-1.36-3.18-3.139-6.236-5.286-9.092
		c-1.26-1.68-3.284-2.608-5.384-2.432c-2.093,0.16-3.958,1.38-4.946,3.232c-0.114,0.212-1.14,2.172-2.196,5.452
		c-0.26,0.808-0.896,1.408-1.832,1.64c-0.878,0.224-1.815-0.048-2.502-0.712c-2.405-2.332-4.174-3.544-4.368-3.676
		c-1.739-1.172-3.962-1.376-5.884-0.544c-1.926,0.836-3.29,2.596-3.622,4.668c-0.562,3.528-0.702,7.064-0.42,10.512
		c0.086,1.032-0.436,1.712-0.756,2.028c-0.33,0.328-1.06,0.904-2.13,0.752c-3.842-0.372-8.956-1.536-11.506-4.948
		c-1.982-2.652-2.462-6.728-1.427-12.112c0.429-2.224-0.403-4.504-2.164-5.932c-1.762-1.432-4.17-1.764-6.254-0.892
		c-17.5,7.368-48.016,31.844-38.235,71.756c0.594,2.42,2.592,4.244,5.058,4.612c2.475,0.356,4.912-0.788,6.188-2.932
		c2.284-3.832,10.642-14.852,18.812-15.208c4.225-0.268,8.37,2.628,12.496,8.352c1.786,2.484,5.154,3.252,7.864,1.836
		c1.714-0.9,7.35-3.088,10.634-1.384c2.452,1.264,3.446,5.008,3.848,7.924c0.33,2.4,2.038,4.384,4.362,5.06
		c2.332,0.688,4.832-0.068,6.402-1.912c0.027-0.032,3.084-3.324,6.66-3.244c3.354,0.076,6.466,3.2,8.485,5.804
		c1.181,1.524,2.984,2.38,4.856,2.38c0.492,0,0.99-0.06,1.479-0.18c2.362-0.588,4.154-2.512,4.572-4.908
		c0.564-3.224,1.84-7.412,4.732-9.068c3.138-1.8,7.456-0.284,7.458-0.28c2.246,0.896,4.813,0.384,6.554-1.3
		c1.736-1.688,2.32-4.24,1.49-6.512c-1.011-2.768-1.883-6.54-0.305-8.804c2.116-3.04,8.112-3.744,10.017-3.752
		c0.014,0,0.025,0,0.038,0c3.065,0,5.664-2.26,6.086-5.3c0.968-6.98,3.363-11.428,7.12-13.22c7.365-3.512,19.653,2.16,23.758,4.64
		c2.13,1.3,4.832,1.176,6.84-0.304C433.38,144.308,434.294,141.76,433.686,139.34z"/>
	<path d="M91.84,118.632c1.2,1.2,2.772,1.8,4.344,1.8c1.572,0,3.144-0.6,4.344-1.8l2.896-2.896l2.896,2.896
		c1.2,1.2,2.772,1.8,4.344,1.8c1.572,0,3.144-0.6,4.344-1.8c2.4-2.4,2.4-6.288,0-8.688l-2.896-2.896l2.896-2.896
		c2.4-2.4,2.4-6.288,0-8.688c-2.4-2.4-6.288-2.4-8.688,0l-2.896,2.896l-2.896-2.896c-2.4-2.4-6.288-2.4-8.688,0
		c-2.4,2.4-2.4,6.288,0,8.688l2.896,2.896l-2.896,2.896C89.44,112.344,89.44,116.232,91.84,118.632z"/>
	<path d="M396.372,307.352c-2.396-2.399-6.288-2.399-8.688,0l-2.896,2.896l-2.897-2.896c-2.399-2.399-6.292-2.399-8.688,0
		c-2.4,2.4-2.4,6.289,0,8.688l2.896,2.896l-2.896,2.896c-2.4,2.4-2.4,6.288,0,8.688c1.198,1.201,2.771,1.801,4.344,1.801
		s3.145-0.6,4.344-1.801l2.897-2.896l2.896,2.896c1.2,1.201,2.772,1.801,4.345,1.801c1.571,0,3.146-0.6,4.344-1.801
		c2.4-2.399,2.4-6.287,0-8.688l-2.896-2.896l2.896-2.896C398.772,313.641,398.772,309.752,396.372,307.352z"/>
	<path d="M262.848,58.688c1.2,1.2,2.772,1.8,4.344,1.8c1.572,0,3.145-0.6,4.345-1.8l2.896-2.896l2.896,2.896
		c1.199,1.2,2.771,1.8,4.344,1.8s3.145-0.6,4.344-1.8c2.4-2.4,2.4-6.288,0-8.688l-2.896-2.896l2.896-2.896
		c2.4-2.4,2.4-6.288,0-8.688c-2.399-2.4-6.287-2.4-8.688,0l-2.896,2.896l-2.896-2.896c-2.399-2.4-6.288-2.4-8.688,0
		c-2.399,2.4-2.399,6.288,0,8.688l2.896,2.896L262.848,50C260.448,52.4,260.448,56.288,262.848,58.688z"/>
	<path d="M152.412,364.668c-0.41,0.08-0.778,0.204-1.148,0.324c-0.368,0.164-0.736,0.372-1.064,0.576
		c-0.328,0.244-0.656,0.492-0.942,0.775c-1.148,1.148-1.802,2.704-1.802,4.344c0,1.637,0.654,3.196,1.802,4.34
		c0.572,0.576,1.228,1.025,2.006,1.353c0.738,0.288,1.516,0.452,2.336,0.452c0.818,0,1.596-0.164,2.334-0.452
		c0.778-0.327,1.434-0.776,2.008-1.353c1.146-1.144,1.802-2.703,1.802-4.34c0-1.64-0.656-3.195-1.802-4.344
		C156.508,364.912,154.378,364.256,152.412,364.668z"/>
	<path d="M414.268,235.888c-0.164-0.368-0.367-0.736-0.571-1.064c-0.246-0.328-0.492-0.656-0.778-0.944
		c-2.294-2.292-6.39-2.292-8.684,0c-0.288,0.288-0.532,0.616-0.778,0.944c-0.206,0.328-0.41,0.696-0.534,1.064
		c-0.164,0.368-0.286,0.736-0.368,1.148c-0.082,0.368-0.122,0.776-0.122,1.188c0,1.636,0.654,3.192,1.803,4.34
		c0.571,0.572,1.228,1.024,2.006,1.352c0.738,0.288,1.516,0.452,2.336,0.452c1.638,0,3.193-0.656,4.342-1.804
		c1.146-1.148,1.802-2.704,1.802-4.34c0-0.412-0.042-0.82-0.124-1.188C414.514,236.624,414.392,236.256,414.268,235.888z"/>
	<path d="M315.718,357.376c-0.326-0.204-0.695-0.412-1.063-0.576c-0.368-0.12-0.738-0.243-1.146-0.323
		c-0.779-0.164-1.598-0.164-2.376,0c-0.41,0.08-0.778,0.203-1.147,0.323c-0.368,0.164-0.736,0.372-1.064,0.576
		c-0.37,0.244-0.656,0.492-0.941,0.776c-0.288,0.287-0.532,0.576-0.778,0.943c-0.206,0.328-0.41,0.696-0.534,1.064
		c-0.164,0.367-0.286,0.736-0.368,1.148c-0.082,0.367-0.122,0.775-0.122,1.188c0,1.636,0.654,3.195,1.803,4.34
		c0.571,0.576,1.228,1.023,2.006,1.352c0.737,0.289,1.516,0.453,2.336,0.453c1.638,0,3.193-0.656,4.342-1.805
		c1.146-1.145,1.802-2.704,1.802-4.34c0-1.6-0.656-3.196-1.802-4.344C316.374,357.868,316.046,357.62,315.718,357.376z"/>
	<path d="M156.426,60.168c1.638,0,3.194-0.612,4.342-1.8c1.188-1.148,1.802-2.704,1.802-4.344c0-0.408-0.042-0.776-0.124-1.188
		c-0.082-0.408-0.164-0.776-0.328-1.144c-0.162-0.368-0.368-0.74-0.572-1.068c-0.246-0.324-0.492-0.652-0.778-0.94
		c-2.254-2.296-6.39-2.296-8.684,0c-0.286,0.288-0.532,0.616-0.778,0.94c-0.206,0.328-0.41,0.7-0.532,1.068
		c-0.164,0.368-0.288,0.736-0.37,1.144c-0.082,0.412-0.122,0.82-0.122,1.188c0,1.64,0.654,3.196,1.802,4.344
		C153.272,59.556,154.788,60.168,156.426,60.168z"/>
	<path d="M396.288,60.168c1.638,0,3.194-0.612,4.342-1.8c1.146-1.148,1.802-2.704,1.802-4.344c0-0.368-0.042-0.776-0.124-1.188
		c-0.082-0.408-0.204-0.776-0.367-1.144c-0.124-0.368-0.328-0.74-0.532-1.068c-0.246-0.324-0.492-0.652-0.778-0.94
		c-0.288-0.288-0.574-0.532-0.944-0.78c-0.325-0.204-0.695-0.368-1.063-0.532s-0.738-0.284-1.146-0.368
		c-1.966-0.368-4.096,0.248-5.529,1.68c-0.288,0.288-0.532,0.616-0.778,0.94c-0.206,0.328-0.41,0.7-0.574,1.068
		c-0.124,0.368-0.246,0.736-0.328,1.144c-0.082,0.412-0.121,0.78-0.121,1.188c0,1.64,0.653,3.196,1.802,4.344
		C393.092,59.556,394.648,60.168,396.288,60.168z"/>
</g>
<text transform="matrix(1 0 0 1 51.1992 471.0391)" font-family="'HelveticaNeue-Bold'" font-size="20.48">Created by Artem  Kovyazin</text>
<text transform="matrix(1 0 0 1 51.1992 491.5195)" font-family="'HelveticaNeue-Bold'" font-size="20.48">from the Noun Project</text>
</svg>
